<?xml version="1.0" standalone="no"?>
<!DOCTYPE svg PUBLIC "-//W3C//DTD SVG 20010904//EN"
 "http://www.w3.org/TR/2001/REC-SVG-20010904/DTD/svg10.dtd">
<svg version="1.0" xmlns="http://www.w3.org/2000/svg"
 width="720.000000pt" height="720.000000pt" viewBox="0 0 720.000000 720.000000"
 preserveAspectRatio="xMidYMid meet">
<metadata>
Created by potrace 1.11, written by Peter Selinger 2001-2013
</metadata>
<g transform="translate(0.000000,720.000000) scale(0.100000,-0.100000)"
fill="#000000" stroke="none">
<path d="M3457 6794 c-1 -1 -50 -5 -109 -8 -59 -4 -113 -8 -120 -11 -7 -2 -35
-6 -63 -9 -27 -3 -75 -10 -105 -16 -30 -6 -71 -13 -90 -16 -19 -3 -48 -9 -65
-14 -16 -5 -43 -12 -60 -15 -51 -8 -225 -61 -340 -103 -143 -51 -440 -187
-465 -212 -3 -3 -25 -16 -50 -29 -71 -39 -314 -201 -330 -220 -3 -3 -25 -22
-50 -41 -201 -154 -432 -397 -608 -640 -34 -47 -67 -90 -72 -97 -6 -7 -10 -15
-10 -18 0 -4 -21 -38 -46 -77 -48 -74 -162 -292 -206 -393 -31 -72 -90 -225
-92 -242 -1 -7 -5 -16 -9 -19 -4 -4 -7 -17 -7 -29 0 -12 -3 -25 -7 -29 -4 -3
-8 -12 -10 -19 -1 -7 -12 -43 -23 -82 -20 -70 -63 -265 -75 -340 -3 -22 -8
-51 -10 -65 -17 -103 -28 -268 -28 -435 -1 -202 13 -387 38 -530 22 -118 46
-238 50 -244 2 -4 6 -19 9 -34 8 -45 71 -249 96 -312 5 -11 16 -40 25 -65 37
-99 156 -347 201 -418 19 -29 34 -56 34 -60 0 -4 7 -17 15 -27 8 -11 34 -49
58 -85 73 -110 111 -165 117 -170 3 -3 21 -25 40 -50 19 -25 37 -47 40 -50 3
-3 34 -39 70 -80 116 -134 263 -274 415 -395 84 -67 325 -235 338 -235 4 0 23
-12 44 -26 129 -88 608 -289 760 -319 10 -1 47 -11 83 -20 36 -9 74 -19 85
-21 11 -2 31 -6 45 -9 220 -43 387 -59 630 -59 143 0 366 11 379 18 3 2 29 6
56 10 155 18 417 76 515 113 8 3 24 8 35 10 11 1 29 7 40 12 11 4 47 18 80 30
105 39 299 124 316 138 8 7 20 13 25 13 29 0 433 251 490 304 7 6 20 18 31 26
140 111 174 142 303 271 103 104 205 221 293 339 31 41 60 80 65 85 4 6 44 69
89 140 233 376 395 823 449 1240 3 28 8 59 10 70 23 123 22 677 -1 749 -2 6
-6 34 -9 61 -3 28 -8 61 -10 75 -3 14 -10 54 -16 90 -40 229 -154 581 -254
780 -44 87 -121 229 -137 252 -11 14 -19 31 -19 37 0 6 -4 11 -10 11 -5 0 -10
5 -10 11 0 9 -79 130 -113 174 -4 6 -33 44 -64 85 -32 41 -60 77 -63 80 -3 3
-32 36 -65 75 -127 147 -319 325 -485 450 -36 27 -67 52 -70 56 -3 3 -9 8 -15
10 -5 2 -49 30 -97 62 -48 31 -91 57 -95 57 -3 0 -14 6 -22 14 -24 20 -234
129 -331 171 -195 85 -353 137 -575 191 -50 13 -295 55 -340 59 -27 2 -77 7
-110 11 -56 5 -403 13 -408 8z"/>
</g>
</svg>
